<!--?xml version="1.0" encoding="utf-8"?-->
<!-- Generator: Adobe Illustrator 18.1.1, SVG Export Plug-In . SVG Version: 6.00 Build 0)  -->

<svg version="1.1" id="_x32_" xmlns="http://www.w3.org/2000/svg" xmlns:xlink="http://www.w3.org/1999/xlink" x="0px" y="0px" viewBox="0 0 512 512" style="width: 256px; height: 256px; opacity: 1;" xml:space="preserve">
<style type="text/css">
	.st0{fill:#4B4B4B;}
</style>
<g>
	<path class="st0" d="M439.377,132.544C439.399,132.654,439.399,132.654,439.377,132.544L439.377,132.544z" style="fill: rgb(1, 122, 255);"></path>
	<path class="st0" d="M439.289,132.1c0.04,0.206,0.07,0.355,0.088,0.444C439.362,132.469,439.332,132.314,439.289,132.1z" style="fill: rgb(1, 122, 255);"></path>
	<path class="st0" d="M436.394,117.671C436.25,116.946,436.268,117.042,436.394,117.671L436.394,117.671z" style="fill: rgb(1, 122, 255);"></path>
	<path class="st0" d="M436.394,117.671c0.108,0.532,0.3,1.5,0.61,3.045c1.372,6.838,2.044,10.186,2.285,11.384
		C438.808,129.713,436.86,120.006,436.394,117.671z" style="fill: rgb(1, 122, 255);"></path>
	<path class="st0" d="M437.004,120.716c-4.59-22.886-11.236-45.824-22.554-66.36c-5.078-9.203-11.176-18.724-19.197-25.644
		c-8.353-7.215-18.74-11.843-29.103-15.369c-22.547-7.666-46.69-10.733-70.36-12.293c-23.012-1.508-46.504-1.67-69.413,1.375
		c-21.873,2.913-43.866,10.186-58.857,27.188c-14.776,16.737-20.447,39.342-23.803,60.883c-1.678,10.763-2.779,21.615-3.681,32.474
		c-0.969,11.643-1.309,23.382-3.253,34.914c-3.452,20.55-12.094,38.705-24.498,55.367c-13.335,17.904-27.861,34.633-36.229,55.642
		c-8.848,22.22-11.546,46.918-9.588,70.655c3.608,43.777,23.685,85.594,54.348,116.864c31.454,32.067,73.87,52.285,118.815,55.138
		c43.111,2.736,88.729-6.83,123.398-33.568c36.03-27.781,55.996-70.323,67.011-113.493c11.554-45.292,15.974-93.172,16.093-139.838
		C446.215,189.885,443.849,154.846,437.004,120.716z M393.286,372.007c-2.409,19.109-9.47,37.39-20.646,53.076
		c-23.168,32.526-60.114,43.267-99.559,43.267c-41.736,0-70.677-29.103-79.03-47.665c-12.382-27.507-11.214-81.388-11.214-117.581
		c0-25.008,0-50.023,0-75.031c0-58.228,0-116.472,0-174.714c0-9.906,4.313-14.201,5.754-15.398
		c-0.402,0.332-0.587,0.481,0.041-0.037c3.142-2.58,1.017-0.836,0.03-0.022c15.697-12.885,37.63-15.324,57.194-16.478
		c2.764-0.155,30.921-1.117,30.921-0.377c0,2.388,0,4.776,0,7.163c0,21.452,0,42.912,0,64.372c0,2.558-0.606,2.823,2.055,2.823
		c5.536,0,11.066,0,16.603,0c2.676,0,2.054-0.288,2.054-2.86c0-4.147,0-8.286,0-12.426c0-19.39,0-38.772,0-58.162
		c0-0.008,0-0.008,0-0.014c22.975,1.685,36.407,4.139,58.258,10.379c12.893,3.689,19.664,17.578,21.046,21.392
		c3.149,8.679,5.463,17.653,7.363,26.686c6.734,32.157,8.7,65.325,9.602,98.095c1.212,43.666,0.754,87.443,0.932,131.124
		C394.78,330.256,395.866,351.494,393.286,372.007z" style="fill: rgb(1, 122, 255);"></path>
	<path class="st0" d="M188.633,37.923c-0.011,0.008-0.029,0.03-0.041,0.037c0.022-0.022,0.045-0.037,0.07-0.059
		C188.651,37.908,188.64,37.916,188.633,37.923z" style="fill: rgb(1, 122, 255);"></path>
	<path class="st0" d="M307.855,145.569c0-7.436,0-14.873,0-22.31c0-10.66-14.437-7.821-21.49-7.821
		c-7.289,0-19.951-2.484-19.951,8.184c0,7.754,0,15.516,0,23.286c0,17.682,0,35.372,0,53.053c0,6.246,0,12.486,0,18.725
		c0,4.9,0.037,11.414,6.904,11.414c9.062,0,18.133,0,27.196,0c8.767,0,7.34-9.507,7.34-15.406
		C307.855,191.652,307.855,168.61,307.855,145.569z" style="fill: rgb(1, 122, 255);"></path>
	<path class="st0" d="M294.49,265.707c-4.82,0-9.632,0-14.452,0c-4.369,0-7.888,0.939-7.888,6.084c0,10.704,0,21.401,0,32.104
		c0,3.726-0.547,9.403,4.9,9.403c4.998,0,9.995,0,14.992,0c4.472,0,7.311-1.582,7.311-6.402c0-5.034,0-10.061,0-15.095
		c0-5.566,0-11.132,0-16.692C299.353,271.421,299.908,265.707,294.49,265.707z" style="fill: rgb(1, 122, 255);"></path>
</g>
</svg>
